<!DOCTYPE svg PUBLIC "-//W3C//DTD SVG 1.1//EN" "http://www.w3.org/Graphics/SVG/1.1/DTD/svg11.dtd">

<!-- Uploaded to: SVG Repo, www.svgrepo.com, Transformed by: SVG Repo Mixer Tools -->
<svg fill="white" height="800px" width="800px" version="1.1" id="图层_1" xmlns="http://www.w3.org/2000/svg" xmlns:xlink="http://www.w3.org/1999/xlink" viewBox="0 0 40 40" enable-background="new 0 0 40 40" xml:space="preserve" transform="rotate(0)">

<g id="SVGRepo_bgCarrier" stroke-width="0"/>

<g id="SVGRepo_tracerCarrier" stroke-linecap="round" stroke-linejoin="round" stroke="#CCCCCC" stroke-width="0.24"/>

<g id="SVGRepo_iconCarrier"> <g> <g> <path d="M15.9,18.5l6.5-3.8c0.3-0.2,0.6-0.2,0.9-0.2c1,0,1.7,0.8,1.7,1.7v7.5c0,1-0.8,1.7-1.7,1.7c-0.3,0-0.6-0.1-0.9-0.2 l-6.5-3.8V18.5z M23.3,15.5c-0.1,0-0.2,0-0.4,0.1l-6.5,3.8C16.1,19.5,16,19.7,16,20s0.1,0.5,0.4,0.6l6.5,3.8 c0.4,0.2,1.1,0,1.1-0.6v-7.5C24,15.8,23.6,15.5,23.3,15.5z"/> </g> <g> <path d="M15.5,25.5c-0.3,0-0.5-0.2-0.5-0.5V15c0-0.3,0.2-0.5,0.5-0.5S16,14.7,16,15v10C16,25.3,15.8,25.5,15.5,25.5z"/> </g> </g> </g>

</svg>